<svg width="36" height="39" viewBox="0 0 36 39" fill="none" xmlns="http://www.w3.org/2000/svg">
<g clip-path="url(#clip0_15_3)">
<line x1="6" y1="17.75" x2="36" y2="17.75" stroke="black" stroke-width="0.5"/>
<line x1="5.88376" y1="17.727" x2="32.444" y2="3.77865" stroke="black" stroke-width="0.5"/>
<path d="M6.00005 17.5L21.5 37" stroke="black" stroke-width="0.5"/>
<path d="M30.5 11.5L30.271 11.6002L30.5 11.5ZM27.5376 6.25285C27.4011 6.23208 27.2736 6.32589 27.2528 6.46239L26.9144 8.68679C26.8936 8.82329 26.9874 8.95078 27.1239 8.97155C27.2604 8.99232 27.3879 8.8985 27.4087 8.762L27.7095 6.78476L29.6868 7.08561C29.8233 7.10638 29.9508 7.01257 29.9716 6.87607C29.9923 6.73957 29.8985 6.61207 29.762 6.5913L27.5376 6.25285ZM31 17C31.2487 17.0257 31.2487 17.0257 31.2487 17.0257C31.2487 17.0257 31.2487 17.0257 31.2487 17.0257C31.2487 17.0257 31.2487 17.0256 31.2487 17.0256C31.2487 17.0256 31.2487 17.0255 31.2487 17.0255C31.2487 17.0253 31.2487 17.0252 31.2488 17.025C31.2488 17.0245 31.2489 17.0239 31.2489 17.0232C31.2491 17.0217 31.2493 17.0195 31.2496 17.0167C31.2501 17.0111 31.2509 17.0028 31.252 16.9921C31.254 16.9707 31.2569 16.9393 31.2603 16.8988C31.2672 16.8178 31.2764 16.7005 31.2857 16.5536L30.7867 16.5219C30.7777 16.6649 30.7687 16.7786 30.7621 16.8564C30.7588 16.8952 30.7561 16.925 30.7542 16.945C30.7532 16.9549 30.7525 16.9624 30.752 16.9674C30.7518 16.9698 30.7516 16.9716 30.7515 16.9728C30.7514 16.9734 30.7514 16.9738 30.7514 16.974C30.7513 16.9742 30.7513 16.9742 30.7513 16.9743C30.7513 16.9743 30.7513 16.9743 30.7513 16.9743C30.7513 16.9743 30.7513 16.9743 30.7513 16.9743C30.7513 16.9743 30.7513 16.9743 30.7513 16.9743C30.7513 16.9743 30.7513 16.9743 31 17ZM31.3233 15.6143C31.3283 15.3261 31.3276 15.0078 31.3167 14.6739L30.817 14.6901C30.8275 15.0146 30.8282 15.3245 30.8234 15.6057L31.3233 15.6143ZM31.2582 13.7315C31.2284 13.4174 31.1871 13.1001 31.1307 12.7902L30.6388 12.8798C30.6922 13.1732 30.7317 13.4761 30.7604 13.7787L31.2582 13.7315ZM30.9012 11.857C30.8502 11.6991 30.793 11.546 30.729 11.3998L30.271 11.6002C30.3275 11.7294 30.3789 11.8667 30.4255 12.0108L30.9012 11.857ZM30.729 11.3998C30.664 11.251 30.5948 11.1007 30.5224 10.9497L30.0715 11.1659C30.1417 11.3122 30.2084 11.4573 30.271 11.6002L30.729 11.3998ZM30.0722 10.0723C29.9149 9.78305 29.751 9.49638 29.5863 9.21825L29.1561 9.47302C29.3182 9.7467 29.4789 10.028 29.6329 10.3112L30.0722 10.0723ZM29.0742 8.38203C28.8867 8.08525 28.7057 7.80802 28.5401 7.55969L28.1241 7.83709C28.2877 8.08247 28.4664 8.35623 28.6515 8.64909L29.0742 8.38203ZM27.9866 6.75089C27.8981 6.62493 27.827 6.52547 27.778 6.45736C27.7534 6.4233 27.7344 6.39707 27.7214 6.37928C27.7149 6.37039 27.71 6.3636 27.7066 6.359C27.7049 6.3567 27.7036 6.35495 27.7028 6.35375C27.7023 6.35315 27.702 6.35269 27.7018 6.35237C27.7016 6.35221 27.7015 6.35208 27.7015 6.35199C27.7014 6.35195 27.7014 6.35191 27.7014 6.35188C27.7014 6.35187 27.7014 6.35186 27.7014 6.35185C27.7014 6.35184 27.7014 6.35184 27.7014 6.35184C27.7014 6.35183 27.7014 6.35183 27.5 6.5C27.2986 6.64817 27.2986 6.64817 27.2986 6.64817C27.2986 6.64817 27.2986 6.64817 27.2986 6.64817C27.2986 6.64817 27.2986 6.64817 27.2986 6.64817C27.2986 6.64818 27.2987 6.6482 27.2987 6.64822C27.2987 6.64827 27.2988 6.64836 27.2989 6.64848C27.299 6.64872 27.2993 6.6491 27.2997 6.64962C27.3005 6.65066 27.3016 6.65225 27.3032 6.65439C27.3063 6.65867 27.3111 6.66512 27.3173 6.67368C27.3298 6.69079 27.3483 6.71631 27.3723 6.74964C27.4203 6.81629 27.4903 6.91414 27.5775 7.03836L27.9866 6.75089ZM30.5 11.5L30.271 11.6002L30.5 11.5ZM27.5376 6.25285C27.4011 6.23208 27.2736 6.32589 27.2528 6.46239L26.9144 8.68679C26.8936 8.82329 26.9874 8.95078 27.1239 8.97155C27.2604 8.99232 27.3879 8.8985 27.4087 8.762L27.7095 6.78476L29.6868 7.08561C29.8233 7.10638 29.9508 7.01257 29.9716 6.87607C29.9923 6.73957 29.8985 6.61207 29.762 6.5913L27.5376 6.25285ZM31 17C31.2487 17.0257 31.2487 17.0257 31.2487 17.0257C31.2487 17.0257 31.2487 17.0257 31.2487 17.0257C31.2487 17.0257 31.2487 17.0256 31.2487 17.0256C31.2487 17.0256 31.2487 17.0255 31.2487 17.0255C31.2487 17.0253 31.2487 17.0252 31.2488 17.025C31.2488 17.0245 31.2489 17.0239 31.2489 17.0232C31.2491 17.0217 31.2493 17.0195 31.2496 17.0167C31.2501 17.0111 31.2509 17.0028 31.252 16.9921C31.254 16.9707 31.2569 16.9393 31.2603 16.8988C31.2672 16.8178 31.2764 16.7005 31.2857 16.5536L30.7867 16.5219C30.7777 16.6649 30.7687 16.7786 30.7621 16.8564C30.7588 16.8952 30.7561 16.925 30.7542 16.945C30.7532 16.9549 30.7525 16.9624 30.752 16.9674C30.7518 16.9698 30.7516 16.9716 30.7515 16.9728C30.7514 16.9734 30.7514 16.9738 30.7514 16.974C30.7513 16.9742 30.7513 16.9742 30.7513 16.9743C30.7513 16.9743 30.7513 16.9743 30.7513 16.9743C30.7513 16.9743 30.7513 16.9743 30.7513 16.9743C30.7513 16.9743 30.7513 16.9743 30.7513 16.9743C30.7513 16.9743 30.7513 16.9743 31 17ZM31.3233 15.6143C31.3283 15.3261 31.3276 15.0078 31.3167 14.6739L30.817 14.6901C30.8275 15.0146 30.8282 15.3245 30.8234 15.6057L31.3233 15.6143ZM31.2582 13.7315C31.2284 13.4174 31.1871 13.1001 31.1307 12.7902L30.6388 12.8798C30.6922 13.1732 30.7317 13.4761 30.7604 13.7787L31.2582 13.7315ZM30.9012 11.857C30.8502 11.6991 30.793 11.546 30.729 11.3998L30.271 11.6002C30.3275 11.7294 30.3789 11.8667 30.4255 12.0108L30.9012 11.857ZM30.729 11.3998C30.664 11.251 30.5948 11.1007 30.5224 10.9497L30.0715 11.1659C30.1417 11.3122 30.2084 11.4573 30.271 11.6002L30.729 11.3998ZM30.0722 10.0723C29.9149 9.78305 29.751 9.49638 29.5863 9.21825L29.1561 9.47302C29.3182 9.7467 29.4789 10.028 29.6329 10.3112L30.0722 10.0723ZM29.0742 8.38203C28.8867 8.08525 28.7057 7.80802 28.5401 7.55969L28.1241 7.83709C28.2877 8.08247 28.4664 8.35623 28.6515 8.64909L29.0742 8.38203ZM27.9866 6.75089C27.8981 6.62493 27.827 6.52547 27.778 6.45736C27.7534 6.4233 27.7344 6.39707 27.7214 6.37928C27.7149 6.37039 27.71 6.3636 27.7066 6.359C27.7049 6.3567 27.7036 6.35495 27.7028 6.35375C27.7023 6.35315 27.702 6.35269 27.7018 6.35237C27.7016 6.35221 27.7015 6.35208 27.7015 6.35199C27.7014 6.35195 27.7014 6.35191 27.7014 6.35188C27.7014 6.35187 27.7014 6.35186 27.7014 6.35185C27.7014 6.35184 27.7014 6.35184 27.7014 6.35184C27.7014 6.35183 27.7014 6.35183 27.5 6.5C27.2986 6.64817 27.2986 6.64817 27.2986 6.64817C27.2986 6.64817 27.2986 6.64817 27.2986 6.64817C27.2986 6.64817 27.2986 6.64817 27.2986 6.64817C27.2986 6.64818 27.2987 6.6482 27.2987 6.64822C27.2987 6.64827 27.2988 6.64836 27.2989 6.64848C27.299 6.64872 27.2993 6.6491 27.2997 6.64962C27.3005 6.65066 27.3016 6.65225 27.3032 6.65439C27.3063 6.65867 27.3111 6.66512 27.3173 6.67368C27.3298 6.69079 27.3483 6.71631 27.3723 6.74964C27.4203 6.81629 27.4903 6.91414 27.5775 7.03836L27.9866 6.75089Z" fill="#F61E1E"/>
<path d="M27.5 27L27.7152 27.1272L27.7152 27.1272L27.5 27ZM19.2555 33.4477C19.2266 33.5827 19.3127 33.7156 19.4477 33.7445L21.6478 34.2155C21.7828 34.2444 21.9157 34.1584 21.9446 34.0234C21.9735 33.8884 21.8875 33.7555 21.7525 33.7266L19.7968 33.3079L20.2155 31.3522C20.2444 31.2172 20.1584 31.0843 20.0234 31.0554C19.8884 31.0265 19.7555 31.1125 19.7266 31.2475L19.2555 33.4477ZM19.5 33.5C19.6359 33.7099 19.6359 33.7099 19.6359 33.7099C19.6359 33.7099 19.6359 33.7099 19.6359 33.7099C19.6359 33.7099 19.6359 33.7098 19.6359 33.7098C19.6359 33.7098 19.636 33.7098 19.636 33.7098C19.6361 33.7097 19.6362 33.7096 19.6364 33.7095C19.6367 33.7093 19.6372 33.709 19.6378 33.7086C19.6391 33.7078 19.641 33.7065 19.6435 33.7049C19.6484 33.7017 19.6558 33.6969 19.6654 33.6906C19.6848 33.6781 19.7133 33.6594 19.7504 33.6351C19.8245 33.5866 19.9328 33.5153 20.0697 33.4243L19.7928 33.0079C19.6569 33.0982 19.5496 33.1689 19.4763 33.217C19.4396 33.241 19.4115 33.2593 19.3926 33.2716C19.3831 33.2778 19.376 33.2825 19.3712 33.2856C19.3688 33.2871 19.367 33.2883 19.3659 33.289C19.3653 33.2894 19.3648 33.2897 19.3645 33.2899C19.3644 33.29 19.3643 33.29 19.3642 33.2901C19.3642 33.2901 19.3642 33.2901 19.3642 33.2901C19.3642 33.2901 19.3641 33.2901 19.3641 33.2901C19.3641 33.2901 19.3641 33.2901 19.3641 33.2901C19.3641 33.2901 19.3641 33.2901 19.5 33.5ZM20.9309 32.8434C21.19 32.6663 21.4779 32.4674 21.785 32.2519L21.4977 31.8427C21.1926 32.0568 20.9063 32.2546 20.6487 32.4307L20.9309 32.8434ZM22.6315 31.6495C22.9056 31.4516 23.1871 31.2455 23.4704 31.0341L23.1714 30.6333C22.8904 30.843 22.6111 31.0475 22.3388 31.2441L22.6315 31.6495ZM24.2989 30.4039C24.5756 30.189 24.8492 29.9716 25.1146 29.7545L24.798 29.3675C24.5363 29.5816 24.266 29.7963 23.9922 30.009L24.2989 30.4039ZM25.9117 29.0798C26.1879 28.8368 26.4473 28.5971 26.682 28.365L26.3304 28.0095C26.1041 28.2333 25.852 28.4663 25.5814 28.7044L25.9117 29.0798ZM27.399 27.5793C27.5223 27.4241 27.6293 27.2727 27.7152 27.1272L27.2848 26.8728C27.2134 26.9937 27.1205 27.126 27.0074 27.2684L27.399 27.5793ZM27.7152 27.1272C27.7952 26.9919 27.8755 26.8484 27.956 26.698L27.5152 26.462C27.4375 26.6071 27.3606 26.7444 27.2848 26.8728L27.7152 27.1272ZM28.3937 25.8198C28.5271 25.5349 28.6604 25.2359 28.7922 24.928L28.3325 24.7312C28.2025 25.0349 28.0716 25.3287 27.9409 25.6078L28.3937 25.8198ZM29.164 24.0289C29.284 23.7292 29.402 23.4259 29.5169 23.123L29.0495 22.9456C28.9355 23.2459 28.8186 23.5465 28.6998 23.843L29.164 24.0289ZM29.8549 22.2124C29.968 21.9008 30.0769 21.5944 30.1805 21.2979L29.7084 21.133C29.6055 21.4278 29.4973 21.7323 29.3849 22.0417L29.8549 22.2124ZM30.4956 20.3795C30.6079 20.0463 30.7103 19.7362 30.8008 19.4583L30.3254 19.3034C30.2354 19.5799 30.1335 19.8883 30.0218 20.2197L30.4956 20.3795ZM31.0963 18.5345C31.1423 18.3879 31.178 18.2726 31.2022 18.1937C31.2143 18.1543 31.2236 18.1241 31.2298 18.1036C31.2329 18.0934 31.2353 18.0856 31.2369 18.0803C31.2377 18.0777 31.2383 18.0757 31.2387 18.0744C31.2389 18.0737 31.239 18.0732 31.2392 18.0728C31.2392 18.0727 31.2392 18.0725 31.2393 18.0724C31.2393 18.0724 31.2393 18.0723 31.2393 18.0723C31.2393 18.0723 31.2393 18.0723 31.2393 18.0723C31.2393 18.0723 31.2393 18.0723 31.2393 18.0723C31.2393 18.0723 31.2393 18.0723 31 18C30.7607 17.9277 30.7607 17.9277 30.7607 17.9277C30.7607 17.9277 30.7607 17.9277 30.7607 17.9277C30.7607 17.9277 30.7607 17.9277 30.7607 17.9277C30.7607 17.9278 30.7607 17.9278 30.7606 17.9278C30.7606 17.9279 30.7606 17.928 30.7605 17.9281C30.7605 17.9284 30.7603 17.9289 30.7601 17.9295C30.7597 17.9308 30.7592 17.9327 30.7584 17.9352C30.7569 17.9403 30.7546 17.9479 30.7515 17.9579C30.7454 17.978 30.7363 18.0078 30.7243 18.0468C30.7003 18.1248 30.6649 18.2393 30.6192 18.3849L31.0963 18.5345ZM27.5 27L27.7152 27.1272L27.7152 27.1272L27.5 27ZM19.2555 33.4477C19.2266 33.5827 19.3127 33.7156 19.4477 33.7445L21.6478 34.2155C21.7828 34.2444 21.9157 34.1584 21.9446 34.0234C21.9735 33.8884 21.8875 33.7555 21.7525 33.7266L19.7968 33.3079L20.2155 31.3522C20.2444 31.2172 20.1584 31.0843 20.0234 31.0554C19.8884 31.0265 19.7555 31.1125 19.7266 31.2475L19.2555 33.4477ZM19.5 33.5C19.6359 33.7099 19.6359 33.7099 19.6359 33.7099C19.6359 33.7099 19.6359 33.7099 19.6359 33.7099C19.6359 33.7099 19.6359 33.7098 19.6359 33.7098C19.6359 33.7098 19.636 33.7098 19.636 33.7098C19.6361 33.7097 19.6362 33.7096 19.6364 33.7095C19.6367 33.7093 19.6372 33.709 19.6378 33.7086C19.6391 33.7078 19.641 33.7065 19.6435 33.7049C19.6484 33.7017 19.6558 33.6969 19.6654 33.6906C19.6848 33.6781 19.7133 33.6594 19.7504 33.6351C19.8245 33.5866 19.9328 33.5153 20.0697 33.4243L19.7928 33.0079C19.6569 33.0982 19.5496 33.1689 19.4763 33.217C19.4396 33.241 19.4115 33.2593 19.3926 33.2716C19.3831 33.2778 19.376 33.2825 19.3712 33.2856C19.3688 33.2871 19.367 33.2883 19.3659 33.289C19.3653 33.2894 19.3648 33.2897 19.3645 33.2899C19.3644 33.29 19.3643 33.29 19.3642 33.2901C19.3642 33.2901 19.3642 33.2901 19.3642 33.2901C19.3642 33.2901 19.3641 33.2901 19.3641 33.2901C19.3641 33.2901 19.3641 33.2901 19.3641 33.2901C19.3641 33.2901 19.3641 33.2901 19.5 33.5ZM20.9309 32.8434C21.19 32.6663 21.4779 32.4674 21.785 32.2519L21.4977 31.8427C21.1926 32.0568 20.9063 32.2546 20.6487 32.4307L20.9309 32.8434ZM22.6315 31.6495C22.9056 31.4516 23.1871 31.2455 23.4704 31.0341L23.1714 30.6333C22.8904 30.843 22.6111 31.0475 22.3388 31.2441L22.6315 31.6495ZM24.2989 30.4039C24.5756 30.189 24.8492 29.9716 25.1146 29.7545L24.798 29.3675C24.5363 29.5816 24.266 29.7963 23.9922 30.009L24.2989 30.4039ZM25.9117 29.0798C26.1879 28.8368 26.4473 28.5971 26.682 28.365L26.3304 28.0095C26.1041 28.2333 25.852 28.4663 25.5814 28.7044L25.9117 29.0798ZM27.399 27.5793C27.5223 27.4241 27.6293 27.2727 27.7152 27.1272L27.2848 26.8728C27.2134 26.9937 27.1205 27.126 27.0074 27.2684L27.399 27.5793ZM27.7152 27.1272C27.7952 26.9919 27.8755 26.8484 27.956 26.698L27.5152 26.462C27.4375 26.6071 27.3606 26.7444 27.2848 26.8728L27.7152 27.1272ZM28.3937 25.8198C28.5271 25.5349 28.6604 25.2359 28.7922 24.928L28.3325 24.7312C28.2025 25.0349 28.0716 25.3287 27.9409 25.6078L28.3937 25.8198ZM29.164 24.0289C29.284 23.7292 29.402 23.4259 29.5169 23.123L29.0495 22.9456C28.9355 23.2459 28.8186 23.5465 28.6998 23.843L29.164 24.0289ZM29.8549 22.2124C29.968 21.9008 30.0769 21.5944 30.1805 21.2979L29.7084 21.133C29.6055 21.4278 29.4973 21.7323 29.3849 22.0417L29.8549 22.2124ZM30.4956 20.3795C30.6079 20.0463 30.7103 19.7362 30.8008 19.4583L30.3254 19.3034C30.2354 19.5799 30.1335 19.8883 30.0218 20.2197L30.4956 20.3795ZM31.0963 18.5345C31.1423 18.3879 31.178 18.2726 31.2022 18.1937C31.2143 18.1543 31.2236 18.1241 31.2298 18.1036C31.2329 18.0934 31.2353 18.0856 31.2369 18.0803C31.2377 18.0777 31.2383 18.0757 31.2387 18.0744C31.2389 18.0737 31.239 18.0732 31.2392 18.0728C31.2392 18.0727 31.2392 18.0725 31.2393 18.0724C31.2393 18.0724 31.2393 18.0723 31.2393 18.0723C31.2393 18.0723 31.2393 18.0723 31.2393 18.0723C31.2393 18.0723 31.2393 18.0723 31.2393 18.0723C31.2393 18.0723 31.2393 18.0723 31 18C30.7607 17.9277 30.7607 17.9277 30.7607 17.9277C30.7607 17.9277 30.7607 17.9277 30.7607 17.9277C30.7607 17.9277 30.7607 17.9277 30.7607 17.9277C30.7607 17.9278 30.7607 17.9278 30.7606 17.9278C30.7606 17.9279 30.7606 17.928 30.7605 17.9281C30.7605 17.9284 30.7603 17.9289 30.7601 17.9295C30.7597 17.9308 30.7592 17.9327 30.7584 17.9352C30.7569 17.9403 30.7546 17.9479 30.7515 17.9579C30.7454 17.978 30.7363 18.0078 30.7243 18.0468C30.7003 18.1248 30.6649 18.2393 30.6192 18.3849L31.0963 18.5345Z" fill="#F61E1E"/>
<path d="M26.1731 17.6539L29.1731 16.1538L35.1732 16.1538L35.1731 19.1539L29.1731 19.1539L26.1731 17.6539Z" fill="#4299E1"/>
<path d="M26.1731 17.6539L29.1732 16.1539L29.1731 19.1539L26.1731 17.6539Z" fill="#303030"/>
<path d="M22.946 1.98651V2.37713H21.3551V1.98651H22.946ZM24.8463 4.04972C24.6119 4.04972 24.403 4.00947 24.2195 3.92898C24.0373 3.84848 23.8923 3.73662 23.7845 3.59339C23.678 3.44898 23.62 3.28149 23.6105 3.09091H24.058C24.0674 3.2081 24.1077 3.3093 24.1787 3.39453C24.2497 3.47857 24.3427 3.54368 24.4575 3.58984C24.5723 3.63601 24.6995 3.65909 24.8392 3.65909C24.9955 3.65909 25.134 3.63187 25.2547 3.57741C25.3754 3.52296 25.4701 3.44721 25.5388 3.35014C25.6075 3.25308 25.6418 3.14062 25.6418 3.01278C25.6418 2.87902 25.6086 2.76125 25.5423 2.65945C25.4761 2.55646 25.379 2.47597 25.2512 2.41797C25.1233 2.35997 24.9671 2.33097 24.7824 2.33097H24.4912V1.94034H24.7824C24.9268 1.94034 25.0535 1.9143 25.1624 1.86222C25.2725 1.81013 25.3583 1.73674 25.4198 1.64205C25.4826 1.54735 25.5139 1.43608 25.5139 1.30824C25.5139 1.18513 25.4867 1.07801 25.4323 0.986861C25.3778 0.895715 25.3009 0.824692 25.2014 0.773793C25.1032 0.722893 24.9872 0.697443 24.8534 0.697443C24.728 0.697443 24.6096 0.720526 24.4983 0.76669C24.3882 0.811671 24.2983 0.877367 24.2284 0.963778C24.1586 1.04901 24.1207 1.15199 24.1148 1.27273H23.6887C23.6958 1.08215 23.7532 0.915246 23.8609 0.772017C23.9686 0.627604 24.1095 0.515151 24.2835 0.434659C24.4587 0.354167 24.651 0.31392 24.8605 0.31392C25.0854 0.31392 25.2784 0.359493 25.4394 0.450639C25.6003 0.540601 25.724 0.659564 25.8105 0.807528C25.8969 0.955492 25.9401 1.11529 25.9401 1.28693C25.9401 1.49171 25.8862 1.66631 25.7785 1.81072C25.672 1.95514 25.527 2.05516 25.3435 2.1108V2.1392C25.5731 2.17708 25.7525 2.27474 25.8815 2.43217C26.0105 2.58842 26.075 2.78196 26.075 3.01278C26.075 3.21046 26.0212 3.38802 25.9134 3.54545C25.8069 3.7017 25.6613 3.82481 25.4767 3.91477C25.292 4.00473 25.0819 4.04972 24.8463 4.04972ZM27.9873 4.04972C27.7198 4.04972 27.4919 3.97692 27.3037 3.83132C27.1155 3.68454 26.9717 3.47206 26.8722 3.19389C26.7728 2.91454 26.7231 2.57718 26.7231 2.18182C26.7231 1.78883 26.7728 1.45324 26.8722 1.17507C26.9729 0.895715 27.1173 0.682647 27.3055 0.535866C27.4949 0.387902 27.7222 0.31392 27.9873 0.31392C28.2525 0.31392 28.4791 0.387902 28.6673 0.535866C28.8567 0.682647 29.0012 0.895715 29.1006 1.17507C29.2012 1.45324 29.2515 1.78883 29.2515 2.18182C29.2515 2.57718 29.2018 2.91454 29.1024 3.19389C29.0029 3.47206 28.8591 3.68454 28.6709 3.83132C28.4827 3.97692 28.2548 4.04972 27.9873 4.04972ZM27.9873 3.65909C28.2525 3.65909 28.4584 3.53125 28.6052 3.27557C28.752 3.01989 28.8254 2.6553 28.8254 2.18182C28.8254 1.86695 28.7916 1.59884 28.7242 1.37749C28.6579 1.15613 28.562 0.987453 28.4365 0.871449C28.3122 0.755445 28.1625 0.697443 27.9873 0.697443C27.7245 0.697443 27.5191 0.82706 27.3712 1.08629C27.2232 1.34434 27.1492 1.70952 27.1492 2.18182C27.1492 2.49669 27.1824 2.7642 27.2487 2.98438C27.315 3.20455 27.4102 3.37204 27.5345 3.48686C27.66 3.60168 27.8109 3.65909 27.9873 3.65909ZM30.6862 1.96875C30.5358 1.96875 30.3985 1.93205 30.2742 1.85866C30.1511 1.78527 30.0529 1.68703 29.9795 1.56392C29.9061 1.43963 29.8694 1.30232 29.8694 1.15199C29.8694 1.00166 29.9061 0.864938 29.9795 0.741832C30.0529 0.617542 30.1511 0.518703 30.2742 0.445312C30.3985 0.371922 30.5358 0.335227 30.6862 0.335227C30.8365 0.335227 30.9732 0.371922 31.0963 0.445312C31.2206 0.518703 31.3195 0.617542 31.3928 0.741832C31.4662 0.864938 31.5029 1.00166 31.5029 1.15199C31.5029 1.30232 31.4662 1.43963 31.3928 1.56392C31.3195 1.68703 31.2206 1.78527 31.0963 1.85866C30.9732 1.93205 30.8365 1.96875 30.6862 1.96875ZM30.6862 1.61364C30.7714 1.61364 30.8489 1.59292 30.9188 1.55149C30.9886 1.51006 31.0442 1.45443 31.0857 1.38459C31.1271 1.31475 31.1478 1.23722 31.1478 1.15199C31.1478 1.06676 31.1271 0.989228 31.0857 0.919389C31.0442 0.84955 30.9886 0.793916 30.9188 0.752486C30.8489 0.711056 30.7714 0.690341 30.6862 0.690341C30.6009 0.690341 30.5234 0.711056 30.4536 0.752486C30.3837 0.793916 30.3281 0.84955 30.2867 0.919389C30.2452 0.989228 30.2245 1.06676 30.2245 1.15199C30.2245 1.23722 30.2452 1.31475 30.2867 1.38459C30.3281 1.45443 30.3837 1.51006 30.4536 1.55149C30.5234 1.59292 30.6009 1.61364 30.6862 1.61364Z" fill="#F61E1E"/>
<path d="M7.29119 35.2543V34.892L8.8892 32.3636H9.15199V32.9247H8.97443L7.76705 34.8352V34.8636H9.91903V35.2543H7.29119ZM9.00284 36V35.1442V34.9755V32.3636H9.42188V36H9.00284ZM11.7208 36.0497C11.5125 36.0497 11.3248 36.0083 11.1579 35.9254C10.991 35.8426 10.8573 35.7289 10.7567 35.5845C10.656 35.4401 10.601 35.2756 10.5915 35.0909H11.0177C11.0342 35.2554 11.1088 35.3916 11.2414 35.4993C11.3751 35.6058 11.5349 35.6591 11.7208 35.6591C11.8699 35.6591 12.0025 35.6242 12.1185 35.5543C12.2357 35.4845 12.3274 35.3886 12.3937 35.2667C12.4612 35.1436 12.4949 35.0045 12.4949 34.8494C12.4949 34.6908 12.46 34.5494 12.3902 34.4251C12.3215 34.2996 12.2268 34.2008 12.1061 34.1286C11.9854 34.0563 11.8474 34.0196 11.6924 34.0185C11.5811 34.0173 11.4669 34.0344 11.3497 34.07C11.2325 34.1043 11.136 34.1487 11.0603 34.2031L10.6483 34.1534L10.8685 32.3636H12.7577V32.7543H11.2378L11.11 33.8267H11.1313C11.2059 33.7675 11.2994 33.7184 11.4118 33.6793C11.5243 33.6403 11.6415 33.6207 11.7634 33.6207C11.9859 33.6207 12.1842 33.674 12.3582 33.7805C12.5334 33.8859 12.6707 34.0303 12.7702 34.2138C12.8708 34.3973 12.9211 34.6068 12.9211 34.8423C12.9211 35.0743 12.869 35.2815 12.7648 35.4638C12.6618 35.6449 12.5198 35.7881 12.3387 35.8935C12.1576 35.9976 11.9516 36.0497 11.7208 36.0497ZM14.3864 33.9688C14.236 33.9688 14.0987 33.9321 13.9744 33.8587C13.8513 33.7853 13.7531 33.687 13.6797 33.5639C13.6063 33.4396 13.5696 33.3023 13.5696 33.152C13.5696 33.0017 13.6063 32.8649 13.6797 32.7418C13.7531 32.6175 13.8513 32.5187 13.9744 32.4453C14.0987 32.3719 14.236 32.3352 14.3864 32.3352C14.5367 32.3352 14.6734 32.3719 14.7965 32.4453C14.9208 32.5187 15.0196 32.6175 15.093 32.7418C15.1664 32.8649 15.2031 33.0017 15.2031 33.152C15.2031 33.3023 15.1664 33.4396 15.093 33.5639C15.0196 33.687 14.9208 33.7853 14.7965 33.8587C14.6734 33.9321 14.5367 33.9688 14.3864 33.9688ZM14.3864 33.6136C14.4716 33.6136 14.5491 33.5929 14.619 33.5515C14.6888 33.5101 14.7444 33.4544 14.7859 33.3846C14.8273 33.3147 14.848 33.2372 14.848 33.152C14.848 33.0668 14.8273 32.9892 14.7859 32.9194C14.7444 32.8496 14.6888 32.7939 14.619 32.7525C14.5491 32.7111 14.4716 32.6903 14.3864 32.6903C14.3011 32.6903 14.2236 32.7111 14.1538 32.7525C14.0839 32.7939 14.0283 32.8496 13.9869 32.9194C13.9454 32.9892 13.9247 33.0668 13.9247 33.152C13.9247 33.2372 13.9454 33.3147 13.9869 33.3846C14.0283 33.4544 14.0839 33.5101 14.1538 33.5515C14.2236 33.5929 14.3011 33.6136 14.3864 33.6136Z" fill="#F61E1E"/>
<path d="M7.112 1.2C7.112 1.323 7.211 1.422 7.331 1.422C7.454 1.422 7.55 1.323 7.55 1.2C7.55 1.08 7.454 0.981 7.331 0.981C7.211 0.981 7.112 1.08 7.112 1.2ZM6.968 1.2C6.968 0.999 7.13 0.837 7.331 0.837C7.532 0.837 7.697 0.999 7.697 1.2C7.697 1.401 7.532 1.566 7.331 1.566C7.13 1.566 6.968 1.401 6.968 1.2ZM5.159 2.211C5.234 2.145 5.291 2.091 5.369 2.013C5.513 1.869 5.774 1.536 5.963 1.311C6.122 1.122 6.263 1.089 6.467 1.284C6.65 1.455 6.908 1.725 7.082 1.911C7.286 2.127 7.586 2.451 7.817 2.7L7.61 2.919C7.397 2.661 7.133 2.352 6.938 2.133C6.764 1.938 6.488 1.641 6.362 1.515C6.245 1.404 6.188 1.413 6.086 1.539C5.942 1.713 5.69 2.043 5.555 2.208C5.492 2.286 5.429 2.379 5.381 2.439L5.159 2.211ZM8.681 0.804C8.891 0.945 9.278 1.257 9.443 1.422L9.257 1.614C9.104 1.458 8.732 1.134 8.507 0.987L8.681 0.804ZM8.423 2.814C8.945 2.736 9.335 2.553 9.62 2.376C10.085 2.085 10.448 1.641 10.622 1.269L10.766 1.527C10.562 1.899 10.214 2.307 9.761 2.592C9.458 2.781 9.08 2.967 8.579 3.06L8.423 2.814ZM12.689 0.954C12.65 1.266 12.59 1.617 12.497 1.938C12.314 2.553 12.074 2.871 11.798 2.871C11.528 2.871 11.261 2.565 11.261 2.067C11.261 1.416 11.84 0.849 12.575 0.849C13.277 0.849 13.724 1.344 13.724 1.953C13.724 2.58 13.31 3 12.596 3.093L12.458 2.871C12.554 2.862 12.644 2.85 12.716 2.835C13.1 2.748 13.478 2.46 13.478 1.941C13.478 1.461 13.145 1.065 12.569 1.065C11.909 1.065 11.498 1.608 11.498 2.049C11.498 2.427 11.669 2.595 11.804 2.595C11.945 2.595 12.107 2.391 12.26 1.884C12.347 1.599 12.41 1.26 12.44 0.948L12.689 0.954ZM14.294 0.999H16.577V1.221H14.516V3.24H14.294V0.999ZM16.493 0.999H16.718V2.943C16.718 3.09 16.685 3.165 16.58 3.201C16.472 3.237 16.283 3.243 16.01 3.243C15.998 3.177 15.965 3.072 15.929 3.009C16.148 3.018 16.355 3.018 16.418 3.015C16.478 3.012 16.493 2.997 16.493 2.94V0.999ZM15.314 0.474L15.593 0.522C15.5 0.735 15.386 0.978 15.296 1.137L15.08 1.086C15.164 0.918 15.263 0.657 15.314 0.474ZM14.912 1.617H15.119V2.826H14.912V1.617ZM15.008 1.617H16.088V2.61H15.008V2.409H15.878V1.821H15.008V1.617ZM17.537 0.945C17.954 0.996 18.347 1.002 18.653 0.972C18.899 0.951 19.145 0.9 19.361 0.828L19.394 1.047C19.199 1.104 18.944 1.155 18.704 1.176C18.401 1.206 17.981 1.206 17.552 1.164L17.537 0.945ZM17.477 1.56C17.99 1.614 18.5 1.605 18.851 1.563C19.136 1.533 19.379 1.473 19.538 1.425L19.577 1.647C19.412 1.692 19.184 1.737 18.932 1.767C18.563 1.815 18.008 1.824 17.492 1.785L17.477 1.56ZM18.503 0.906C18.479 0.819 18.452 0.726 18.419 0.639L18.674 0.606C18.704 0.858 18.797 1.161 18.872 1.374C18.953 1.608 19.085 1.896 19.241 2.127C19.274 2.175 19.31 2.217 19.355 2.256L19.229 2.439C19.061 2.397 18.782 2.367 18.575 2.346L18.593 2.163C18.755 2.178 18.95 2.199 19.043 2.211C18.878 1.953 18.752 1.665 18.665 1.422C18.59 1.215 18.545 1.056 18.503 0.906ZM17.915 2.208C17.843 2.31 17.789 2.412 17.789 2.547C17.789 2.793 18.008 2.919 18.479 2.919C18.758 2.919 18.977 2.898 19.196 2.856L19.184 3.093C18.974 3.129 18.74 3.147 18.482 3.147C17.897 3.147 17.567 2.973 17.561 2.586C17.561 2.415 17.612 2.289 17.681 2.157L17.915 2.208Z" fill="black"/>
<path d="M17.104 15.245H18.88V15.44H17.104V15.245ZM17.188 14.759H18.814V14.945H17.188V14.759ZM17.542 14.483H17.758V15.365H17.542V14.483ZM17.878 15.371H18.088V16.595H17.878V15.371ZM18.235 14.483H18.448V15.374H18.235V14.483ZM17.434 16.244V16.505H18.559V16.244H17.434ZM17.434 15.827V16.085H18.559V15.827H17.434ZM17.236 15.659H18.766V16.673H17.236V15.659ZM17.632 16.736L17.827 16.859C17.659 17.003 17.389 17.156 17.17 17.243C17.137 17.201 17.068 17.132 17.02 17.09C17.239 17.006 17.503 16.859 17.632 16.736ZM16.153 15.125H17.137V15.338H16.153V15.125ZM16.573 14.48H16.783V17.237H16.573V14.48ZM16.567 15.257L16.705 15.305C16.612 15.782 16.411 16.373 16.192 16.673C16.168 16.613 16.117 16.529 16.078 16.478C16.279 16.208 16.483 15.686 16.567 15.257ZM16.765 15.542C16.834 15.62 17.092 15.992 17.146 16.079L17.02 16.253C16.954 16.106 16.744 15.755 16.669 15.638L16.765 15.542ZM18.169 16.871L18.331 16.748C18.523 16.847 18.781 17 18.913 17.105L18.742 17.246C18.619 17.141 18.367 16.979 18.169 16.871ZM20.488 15.122H21.793V17.222H21.589V15.326H20.683V17.243H20.488V15.122ZM20.581 15.968H21.679V16.172H20.581V15.968ZM20.581 16.871H21.679V17.075H20.581V16.871ZM21.019 14.483H21.232V15.218H21.223V16.991H21.025V15.218H21.019V14.483ZM19.147 14.807H20.389V15.008H19.147V14.807ZM19.117 16.517H20.425V16.718H19.117V16.517ZM19.672 14.483H19.876V15.302H19.672V14.483ZM19.69 15.314H19.855V16.187H19.876V17.246H19.672V16.187H19.69V15.314ZM19.402 15.83V16.106H20.158V15.83H19.402ZM19.402 15.398V15.668H20.158V15.398H19.402ZM19.228 15.23H20.335V16.274H19.228V15.23Z" fill="black"/>
<path d="M2.112 29.2C2.112 29.323 2.211 29.422 2.331 29.422C2.454 29.422 2.55 29.323 2.55 29.2C2.55 29.08 2.454 28.981 2.331 28.981C2.211 28.981 2.112 29.08 2.112 29.2ZM1.968 29.2C1.968 28.999 2.13 28.837 2.331 28.837C2.532 28.837 2.697 28.999 2.697 29.2C2.697 29.401 2.532 29.566 2.331 29.566C2.13 29.566 1.968 29.401 1.968 29.2ZM0.159 30.211C0.234 30.145 0.291 30.091 0.369 30.013C0.513 29.869 0.774 29.536 0.963 29.311C1.122 29.122 1.263 29.089 1.467 29.284C1.65 29.455 1.908 29.725 2.082 29.911C2.286 30.127 2.586 30.451 2.817 30.7L2.61 30.919C2.397 30.661 2.133 30.352 1.938 30.133C1.764 29.938 1.488 29.641 1.362 29.515C1.245 29.404 1.188 29.413 1.086 29.539C0.942 29.713 0.69 30.043 0.555 30.208C0.492 30.286 0.429 30.379 0.381 30.439L0.159 30.211ZM3.681 28.804C3.891 28.945 4.278 29.257 4.443 29.422L4.257 29.614C4.104 29.458 3.732 29.134 3.507 28.987L3.681 28.804ZM3.423 30.814C3.945 30.736 4.335 30.553 4.62 30.376C5.085 30.085 5.448 29.641 5.622 29.269L5.766 29.527C5.562 29.899 5.214 30.307 4.761 30.592C4.458 30.781 4.08 30.967 3.579 31.06L3.423 30.814ZM7.689 28.954C7.65 29.266 7.59 29.617 7.497 29.938C7.314 30.553 7.074 30.871 6.798 30.871C6.528 30.871 6.261 30.565 6.261 30.067C6.261 29.416 6.84 28.849 7.575 28.849C8.277 28.849 8.724 29.344 8.724 29.953C8.724 30.58 8.31 31 7.596 31.093L7.458 30.871C7.554 30.862 7.644 30.85 7.716 30.835C8.1 30.748 8.478 30.46 8.478 29.941C8.478 29.461 8.145 29.065 7.569 29.065C6.909 29.065 6.498 29.608 6.498 30.049C6.498 30.427 6.669 30.595 6.804 30.595C6.945 30.595 7.107 30.391 7.26 29.884C7.347 29.599 7.41 29.26 7.44 28.948L7.689 28.954ZM9.294 28.999H11.577V29.221H9.516V31.24H9.294V28.999ZM11.493 28.999H11.718V30.943C11.718 31.09 11.685 31.165 11.58 31.201C11.472 31.237 11.283 31.243 11.01 31.243C10.998 31.177 10.965 31.072 10.929 31.009C11.148 31.018 11.355 31.018 11.418 31.015C11.478 31.012 11.493 30.997 11.493 30.94V28.999ZM10.314 28.474L10.593 28.522C10.5 28.735 10.386 28.978 10.296 29.137L10.08 29.086C10.164 28.918 10.263 28.657 10.314 28.474ZM9.912 29.617H10.119V30.826H9.912V29.617ZM10.008 29.617H11.088V30.61H10.008V30.409H10.878V29.821H10.008V29.617ZM12.537 28.945C12.954 28.996 13.347 29.002 13.653 28.972C13.899 28.951 14.145 28.9 14.361 28.828L14.394 29.047C14.199 29.104 13.944 29.155 13.704 29.176C13.401 29.206 12.981 29.206 12.552 29.164L12.537 28.945ZM12.477 29.56C12.99 29.614 13.5 29.605 13.851 29.563C14.136 29.533 14.379 29.473 14.538 29.425L14.577 29.647C14.412 29.692 14.184 29.737 13.932 29.767C13.563 29.815 13.008 29.824 12.492 29.785L12.477 29.56ZM13.503 28.906C13.479 28.819 13.452 28.726 13.419 28.639L13.674 28.606C13.704 28.858 13.797 29.161 13.872 29.374C13.953 29.608 14.085 29.896 14.241 30.127C14.274 30.175 14.31 30.217 14.355 30.256L14.229 30.439C14.061 30.397 13.782 30.367 13.575 30.346L13.593 30.163C13.755 30.178 13.95 30.199 14.043 30.211C13.878 29.953 13.752 29.665 13.665 29.422C13.59 29.215 13.545 29.056 13.503 28.906ZM12.915 30.208C12.843 30.31 12.789 30.412 12.789 30.547C12.789 30.793 13.008 30.919 13.479 30.919C13.758 30.919 13.977 30.898 14.196 30.856L14.184 31.093C13.974 31.129 13.74 31.147 13.482 31.147C12.897 31.147 12.567 30.973 12.561 30.586C12.561 30.415 12.612 30.289 12.681 30.157L12.915 30.208Z" fill="black"/>
</g>
<defs>
<clipPath id="clip0_15_3">
<rect width="36" height="39" fill="white"/>
</clipPath>
</defs>
</svg>
