<svg width="23" height="500" viewBox="0 0 23 500" fill="none" xmlns="http://www.w3.org/2000/svg">
<g clip-path="url(#clip0_1_2)">
<rect width="23" height="500" fill="white"/>
<line x1="13" y1="99.5" x2="23" y2="99.5" stroke="black"/>
<line x1="13" y1="199.5" x2="23" y2="199.5" stroke="black"/>
<line x1="13" y1="299.5" x2="23" y2="299.5" stroke="black"/>
<line x1="13" y1="399.5" x2="23" y2="399.5" stroke="black"/>
<line x1="13" y1="499.5" x2="23" y2="499.5" stroke="black"/>
<path d="M3.97159 86.2727V95H2.91477V87.3807H2.86364L0.732955 88.7955V87.7216L2.91477 86.2727H3.97159ZM9.32812 95.1193C8.68608 95.1193 8.1392 94.9446 7.6875 94.5952C7.2358 94.2429 6.89063 93.733 6.65199 93.0653C6.41335 92.3949 6.29403 91.5852 6.29403 90.6364C6.29403 89.6932 6.41335 88.8878 6.65199 88.2202C6.89347 87.5497 7.24006 87.0384 7.69176 86.6861C8.14631 86.331 8.69176 86.1534 9.32812 86.1534C9.96449 86.1534 10.5085 86.331 10.9602 86.6861C11.4148 87.0384 11.7614 87.5497 12 88.2202C12.2415 88.8878 12.3622 89.6932 12.3622 90.6364C12.3622 91.5852 12.2429 92.3949 12.0043 93.0653C11.7656 93.733 11.4205 94.2429 10.9688 94.5952C10.517 94.9446 9.97017 95.1193 9.32812 95.1193ZM9.32812 94.1818C9.96449 94.1818 10.4588 93.875 10.8111 93.2614C11.1634 92.6477 11.3395 91.7727 11.3395 90.6364C11.3395 89.8807 11.2585 89.2372 11.0966 88.706C10.9375 88.1747 10.7074 87.7699 10.4062 87.4915C10.108 87.2131 9.74858 87.0739 9.32812 87.0739C8.69744 87.0739 8.20455 87.3849 7.84943 88.0071C7.49432 88.6264 7.31676 89.5028 7.31676 90.6364C7.31676 91.392 7.39631 92.0341 7.5554 92.5625C7.71449 93.0909 7.94318 93.4929 8.24148 93.7685C8.54261 94.044 8.90483 94.1818 9.32812 94.1818ZM16.8281 95.1193C16.1861 95.1193 15.6392 94.9446 15.1875 94.5952C14.7358 94.2429 14.3906 93.733 14.152 93.0653C13.9134 92.3949 13.794 91.5852 13.794 90.6364C13.794 89.6932 13.9134 88.8878 14.152 88.2202C14.3935 87.5497 14.7401 87.0384 15.1918 86.6861C15.6463 86.331 16.1918 86.1534 16.8281 86.1534C17.4645 86.1534 18.0085 86.331 18.4602 86.6861C18.9148 87.0384 19.2614 87.5497 19.5 88.2202C19.7415 88.8878 19.8622 89.6932 19.8622 90.6364C19.8622 91.5852 19.7429 92.3949 19.5043 93.0653C19.2656 93.733 18.9205 94.2429 18.4688 94.5952C18.017 94.9446 17.4702 95.1193 16.8281 95.1193ZM16.8281 94.1818C17.4645 94.1818 17.9588 93.875 18.3111 93.2614C18.6634 92.6477 18.8395 91.7727 18.8395 90.6364C18.8395 89.8807 18.7585 89.2372 18.5966 88.706C18.4375 88.1747 18.2074 87.7699 17.9062 87.4915C17.608 87.2131 17.2486 87.0739 16.8281 87.0739C16.1974 87.0739 15.7045 87.3849 15.3494 88.0071C14.9943 88.6264 14.8168 89.5028 14.8168 90.6364C14.8168 91.392 14.8963 92.0341 15.0554 92.5625C15.2145 93.0909 15.4432 93.4929 15.7415 93.7685C16.0426 94.044 16.4048 94.1818 16.8281 94.1818Z" fill="#808080"/>
<path d="M0.903409 195V194.233L3.78409 191.08C4.12216 190.71 4.40057 190.389 4.61932 190.116C4.83807 189.841 5 189.582 5.10511 189.341C5.21307 189.097 5.26705 188.841 5.26705 188.574C5.26705 188.267 5.19318 188.001 5.04545 187.777C4.90057 187.553 4.7017 187.379 4.44886 187.257C4.19602 187.135 3.91193 187.074 3.59659 187.074C3.26136 187.074 2.96875 187.143 2.71875 187.283C2.47159 187.419 2.27983 187.611 2.14347 187.858C2.00994 188.105 1.94318 188.395 1.94318 188.727H0.9375C0.9375 188.216 1.0554 187.767 1.29119 187.381C1.52699 186.994 1.84801 186.693 2.25426 186.477C2.66335 186.261 3.12216 186.153 3.63068 186.153C4.14205 186.153 4.59517 186.261 4.99006 186.477C5.38494 186.693 5.6946 186.984 5.91903 187.351C6.14347 187.717 6.25568 188.125 6.25568 188.574C6.25568 188.895 6.19744 189.209 6.08097 189.516C5.96733 189.82 5.76847 190.159 5.48438 190.534C5.20312 190.906 4.8125 191.361 4.3125 191.898L2.35227 193.994V194.062H6.40909V195H0.903409ZM11.0156 195.119C10.3736 195.119 9.8267 194.945 9.375 194.595C8.9233 194.243 8.57813 193.733 8.33949 193.065C8.10085 192.395 7.98153 191.585 7.98153 190.636C7.98153 189.693 8.10085 188.888 8.33949 188.22C8.58097 187.55 8.92756 187.038 9.37926 186.686C9.83381 186.331 10.3793 186.153 11.0156 186.153C11.652 186.153 12.196 186.331 12.6477 186.686C13.1023 187.038 13.4489 187.55 13.6875 188.22C13.929 188.888 14.0497 189.693 14.0497 190.636C14.0497 191.585 13.9304 192.395 13.6918 193.065C13.4531 193.733 13.108 194.243 12.6562 194.595C12.2045 194.945 11.6577 195.119 11.0156 195.119ZM11.0156 194.182C11.652 194.182 12.1463 193.875 12.4986 193.261C12.8509 192.648 13.027 191.773 13.027 190.636C13.027 189.881 12.946 189.237 12.7841 188.706C12.625 188.175 12.3949 187.77 12.0938 187.491C11.7955 187.213 11.4361 187.074 11.0156 187.074C10.3849 187.074 9.89205 187.385 9.53693 188.007C9.18182 188.626 9.00426 189.503 9.00426 190.636C9.00426 191.392 9.08381 192.034 9.2429 192.562C9.40199 193.091 9.63068 193.493 9.92898 193.768C10.2301 194.044 10.5923 194.182 11.0156 194.182ZM18.5156 195.119C17.8736 195.119 17.3267 194.945 16.875 194.595C16.4233 194.243 16.0781 193.733 15.8395 193.065C15.6009 192.395 15.4815 191.585 15.4815 190.636C15.4815 189.693 15.6009 188.888 15.8395 188.22C16.081 187.55 16.4276 187.038 16.8793 186.686C17.3338 186.331 17.8793 186.153 18.5156 186.153C19.152 186.153 19.696 186.331 20.1477 186.686C20.6023 187.038 20.9489 187.55 21.1875 188.22C21.429 188.888 21.5497 189.693 21.5497 190.636C21.5497 191.585 21.4304 192.395 21.1918 193.065C20.9531 193.733 20.608 194.243 20.1562 194.595C19.7045 194.945 19.1577 195.119 18.5156 195.119ZM18.5156 194.182C19.152 194.182 19.6463 193.875 19.9986 193.261C20.3509 192.648 20.527 191.773 20.527 190.636C20.527 189.881 20.446 189.237 20.2841 188.706C20.125 188.175 19.8949 187.77 19.5938 187.491C19.2955 187.213 18.9361 187.074 18.5156 187.074C17.8849 187.074 17.392 187.385 17.0369 188.007C16.6818 188.626 16.5043 189.503 16.5043 190.636C16.5043 191.392 16.5838 192.034 16.7429 192.562C16.902 193.091 17.1307 193.493 17.429 193.768C17.7301 194.044 18.0923 194.182 18.5156 194.182Z" fill="#808080"/>
<path d="M3.85227 295.119C3.28977 295.119 2.78835 295.023 2.34801 294.83C1.91051 294.636 1.5625 294.368 1.30398 294.024C1.0483 293.678 0.909091 293.276 0.886364 292.818H1.96023C1.98295 293.099 2.07955 293.342 2.25 293.547C2.42045 293.749 2.64347 293.905 2.91903 294.016C3.1946 294.126 3.5 294.182 3.83523 294.182C4.21023 294.182 4.54261 294.116 4.83239 293.986C5.12216 293.855 5.34943 293.673 5.5142 293.44C5.67898 293.207 5.76136 292.938 5.76136 292.631C5.76136 292.31 5.68182 292.027 5.52273 291.783C5.36364 291.536 5.13068 291.342 4.82386 291.203C4.51705 291.064 4.14205 290.994 3.69886 290.994H3V290.057H3.69886C4.04545 290.057 4.34943 289.994 4.6108 289.869C4.875 289.744 5.08097 289.568 5.22869 289.341C5.37926 289.114 5.45455 288.847 5.45455 288.54C5.45455 288.244 5.3892 287.987 5.25852 287.768C5.12784 287.55 4.94318 287.379 4.70455 287.257C4.46875 287.135 4.19034 287.074 3.86932 287.074C3.56818 287.074 3.28409 287.129 3.01705 287.24C2.75284 287.348 2.53693 287.506 2.36932 287.713C2.2017 287.918 2.1108 288.165 2.09659 288.455H1.07386C1.09091 287.997 1.22869 287.597 1.48722 287.253C1.74574 286.906 2.08381 286.636 2.50142 286.443C2.92188 286.25 3.38352 286.153 3.88636 286.153C4.42614 286.153 4.8892 286.263 5.27557 286.482C5.66193 286.697 5.95881 286.983 6.16619 287.338C6.37358 287.693 6.47727 288.077 6.47727 288.489C6.47727 288.98 6.34801 289.399 6.08949 289.746C5.83381 290.092 5.4858 290.332 5.04545 290.466V290.534C5.59659 290.625 6.02699 290.859 6.33665 291.237C6.64631 291.612 6.80114 292.077 6.80114 292.631C6.80114 293.105 6.67188 293.531 6.41335 293.909C6.15767 294.284 5.80824 294.58 5.36506 294.795C4.92188 295.011 4.41761 295.119 3.85227 295.119ZM11.3906 295.119C10.7486 295.119 10.2017 294.945 9.75 294.595C9.2983 294.243 8.95313 293.733 8.71449 293.065C8.47585 292.395 8.35653 291.585 8.35653 290.636C8.35653 289.693 8.47585 288.888 8.71449 288.22C8.95597 287.55 9.30256 287.038 9.75426 286.686C10.2088 286.331 10.7543 286.153 11.3906 286.153C12.027 286.153 12.571 286.331 13.0227 286.686C13.4773 287.038 13.8239 287.55 14.0625 288.22C14.304 288.888 14.4247 289.693 14.4247 290.636C14.4247 291.585 14.3054 292.395 14.0668 293.065C13.8281 293.733 13.483 294.243 13.0312 294.595C12.5795 294.945 12.0327 295.119 11.3906 295.119ZM11.3906 294.182C12.027 294.182 12.5213 293.875 12.8736 293.261C13.2259 292.648 13.402 291.773 13.402 290.636C13.402 289.881 13.321 289.237 13.1591 288.706C13 288.175 12.7699 287.77 12.4688 287.491C12.1705 287.213 11.8111 287.074 11.3906 287.074C10.7599 287.074 10.267 287.385 9.91193 288.007C9.55682 288.626 9.37926 289.503 9.37926 290.636C9.37926 291.392 9.45881 292.034 9.6179 292.562C9.77699 293.091 10.0057 293.493 10.304 293.768C10.6051 294.044 10.9673 294.182 11.3906 294.182ZM18.8906 295.119C18.2486 295.119 17.7017 294.945 17.25 294.595C16.7983 294.243 16.4531 293.733 16.2145 293.065C15.9759 292.395 15.8565 291.585 15.8565 290.636C15.8565 289.693 15.9759 288.888 16.2145 288.22C16.456 287.55 16.8026 287.038 17.2543 286.686C17.7088 286.331 18.2543 286.153 18.8906 286.153C19.527 286.153 20.071 286.331 20.5227 286.686C20.9773 287.038 21.3239 287.55 21.5625 288.22C21.804 288.888 21.9247 289.693 21.9247 290.636C21.9247 291.585 21.8054 292.395 21.5668 293.065C21.3281 293.733 20.983 294.243 20.5312 294.595C20.0795 294.945 19.5327 295.119 18.8906 295.119ZM18.8906 294.182C19.527 294.182 20.0213 293.875 20.3736 293.261C20.7259 292.648 20.902 291.773 20.902 290.636C20.902 289.881 20.821 289.237 20.6591 288.706C20.5 288.175 20.2699 287.77 19.9688 287.491C19.6705 287.213 19.3111 287.074 18.8906 287.074C18.2599 287.074 17.767 287.385 17.4119 288.007C17.0568 288.626 16.8793 289.503 16.8793 290.636C16.8793 291.392 16.9588 292.034 17.1179 292.562C17.277 293.091 17.5057 293.493 17.804 293.768C18.1051 294.044 18.4673 294.182 18.8906 294.182Z" fill="#808080"/>
<path d="M0.698864 393.21V392.341L4.53409 386.273H5.16477V387.619H4.73864L1.84091 392.205V392.273H7.00568V393.21H0.698864ZM4.80682 395V392.946V392.541V386.273H5.8125V395H4.80682ZM11.4492 395.119C10.8072 395.119 10.2603 394.945 9.80859 394.595C9.35689 394.243 9.01172 393.733 8.77308 393.065C8.53445 392.395 8.41513 391.585 8.41513 390.636C8.41513 389.693 8.53445 388.888 8.77308 388.22C9.01456 387.55 9.36115 387.038 9.81286 386.686C10.2674 386.331 10.8129 386.153 11.4492 386.153C12.0856 386.153 12.6296 386.331 13.0813 386.686C13.5359 387.038 13.8825 387.55 14.1211 388.22C14.3626 388.888 14.4833 389.693 14.4833 390.636C14.4833 391.585 14.364 392.395 14.1254 393.065C13.8867 393.733 13.5415 394.243 13.0898 394.595C12.6381 394.945 12.0913 395.119 11.4492 395.119ZM11.4492 394.182C12.0856 394.182 12.5799 393.875 12.9322 393.261C13.2844 392.648 13.4606 391.773 13.4606 390.636C13.4606 389.881 13.3796 389.237 13.2177 388.706C13.0586 388.175 12.8285 387.77 12.5273 387.491C12.229 387.213 11.8697 387.074 11.4492 387.074C10.8185 387.074 10.3256 387.385 9.97053 388.007C9.61541 388.626 9.43786 389.503 9.43786 390.636C9.43786 391.392 9.5174 392.034 9.67649 392.562C9.83558 393.091 10.0643 393.493 10.3626 393.768C10.6637 394.044 11.0259 394.182 11.4492 394.182ZM18.9492 395.119C18.3072 395.119 17.7603 394.945 17.3086 394.595C16.8569 394.243 16.5117 393.733 16.2731 393.065C16.0344 392.395 15.9151 391.585 15.9151 390.636C15.9151 389.693 16.0344 388.888 16.2731 388.22C16.5146 387.55 16.8612 387.038 17.3129 386.686C17.7674 386.331 18.3129 386.153 18.9492 386.153C19.5856 386.153 20.1296 386.331 20.5813 386.686C21.0359 387.038 21.3825 387.55 21.6211 388.22C21.8626 388.888 21.9833 389.693 21.9833 390.636C21.9833 391.585 21.864 392.395 21.6254 393.065C21.3867 393.733 21.0415 394.243 20.5898 394.595C20.1381 394.945 19.5913 395.119 18.9492 395.119ZM18.9492 394.182C19.5856 394.182 20.0799 393.875 20.4322 393.261C20.7844 392.648 20.9606 391.773 20.9606 390.636C20.9606 389.881 20.8796 389.237 20.7177 388.706C20.5586 388.175 20.3285 387.77 20.0273 387.491C19.729 387.213 19.3697 387.074 18.9492 387.074C18.3185 387.074 17.8256 387.385 17.4705 388.007C17.1154 388.626 16.9379 389.503 16.9379 390.636C16.9379 391.392 17.0174 392.034 17.1765 392.562C17.3356 393.091 17.5643 393.493 17.8626 393.768C18.1637 394.044 18.5259 394.182 18.9492 394.182Z" fill="#808080"/>
<path d="M3.63068 495.119C3.13068 495.119 2.6804 495.02 2.27983 494.821C1.87926 494.622 1.55824 494.349 1.31676 494.003C1.07528 493.656 0.943182 493.261 0.920455 492.818H1.94318C1.98295 493.213 2.16193 493.54 2.48011 493.798C2.80114 494.054 3.18466 494.182 3.63068 494.182C3.98864 494.182 4.30682 494.098 4.58523 493.93C4.86648 493.763 5.08665 493.533 5.24574 493.24C5.40767 492.945 5.48864 492.611 5.48864 492.239C5.48864 491.858 5.40483 491.518 5.23722 491.22C5.07244 490.919 4.84517 490.682 4.5554 490.509C4.26563 490.335 3.93466 490.247 3.5625 490.244C3.29545 490.241 3.02131 490.283 2.74006 490.368C2.45881 490.45 2.22727 490.557 2.04545 490.688L1.05682 490.568L1.58523 486.273H6.11932V487.21H2.47159L2.16477 489.784H2.21591C2.39489 489.642 2.61932 489.524 2.8892 489.43C3.15909 489.337 3.44034 489.29 3.73295 489.29C4.26705 489.29 4.7429 489.418 5.16051 489.673C5.58097 489.926 5.91051 490.273 6.14915 490.713C6.39062 491.153 6.51136 491.656 6.51136 492.222C6.51136 492.778 6.38636 493.276 6.13636 493.713C5.8892 494.148 5.5483 494.491 5.11364 494.744C4.67898 494.994 4.18466 495.119 3.63068 495.119ZM11.0508 495.119C10.4087 495.119 9.86186 494.945 9.41016 494.595C8.95845 494.243 8.61328 493.733 8.37464 493.065C8.13601 492.395 8.01669 491.585 8.01669 490.636C8.01669 489.693 8.13601 488.888 8.37464 488.22C8.61612 487.55 8.96271 487.038 9.41442 486.686C9.86896 486.331 10.4144 486.153 11.0508 486.153C11.6871 486.153 12.2312 486.331 12.6829 486.686C13.1374 487.038 13.484 487.55 13.7227 488.22C13.9641 488.888 14.0849 489.693 14.0849 490.636C14.0849 491.585 13.9656 492.395 13.7269 493.065C13.4883 493.733 13.1431 494.243 12.6914 494.595C12.2397 494.945 11.6928 495.119 11.0508 495.119ZM11.0508 494.182C11.6871 494.182 12.1815 493.875 12.5337 493.261C12.886 492.648 13.0621 491.773 13.0621 490.636C13.0621 489.881 12.9812 489.237 12.8192 488.706C12.6602 488.175 12.43 487.77 12.1289 487.491C11.8306 487.213 11.4712 487.074 11.0508 487.074C10.4201 487.074 9.9272 487.385 9.57209 488.007C9.21697 488.626 9.03942 489.503 9.03942 490.636C9.03942 491.392 9.11896 492.034 9.27805 492.562C9.43714 493.091 9.66584 493.493 9.96413 493.768C10.2653 494.044 10.6275 494.182 11.0508 494.182ZM18.5508 495.119C17.9087 495.119 17.3619 494.945 16.9102 494.595C16.4585 494.243 16.1133 493.733 15.8746 493.065C15.636 492.395 15.5167 491.585 15.5167 490.636C15.5167 489.693 15.636 488.888 15.8746 488.22C16.1161 487.55 16.4627 487.038 16.9144 486.686C17.369 486.331 17.9144 486.153 18.5508 486.153C19.1871 486.153 19.7312 486.331 20.1829 486.686C20.6374 487.038 20.984 487.55 21.2227 488.22C21.4641 488.888 21.5849 489.693 21.5849 490.636C21.5849 491.585 21.4656 492.395 21.2269 493.065C20.9883 493.733 20.6431 494.243 20.1914 494.595C19.7397 494.945 19.1928 495.119 18.5508 495.119ZM18.5508 494.182C19.1871 494.182 19.6815 493.875 20.0337 493.261C20.386 492.648 20.5621 491.773 20.5621 490.636C20.5621 489.881 20.4812 489.237 20.3192 488.706C20.1602 488.175 19.93 487.77 19.6289 487.491C19.3306 487.213 18.9712 487.074 18.5508 487.074C17.9201 487.074 17.4272 487.385 17.0721 488.007C16.717 488.626 16.5394 489.503 16.5394 490.636C16.5394 491.392 16.619 492.034 16.7781 492.562C16.9371 493.091 17.1658 493.493 17.4641 493.768C17.7653 494.044 18.1275 494.182 18.5508 494.182Z" fill="#808080"/>
<line x1="22.5" y1="2.18557e-08" x2="22.5" y2="500" stroke="#808080"/>
</g>
<defs>
<clipPath id="clip0_1_2">
<rect width="23" height="500" fill="white"/>
</clipPath>
</defs>
</svg>
