<svg width="500" height="23" viewBox="0 0 500 23" fill="none" xmlns="http://www.w3.org/2000/svg">
<g clip-path="url(#clip0_1_19)">
<rect width="23" height="500" transform="translate(500 3.05176e-05) rotate(90)" fill="white"/>
<line x1="499.5" y1="13" x2="499.5" y2="23" stroke="black"/>
<line x1="400.5" y1="13" x2="400.5" y2="23" stroke="black"/>
<line x1="300.5" y1="13" x2="300.5" y2="23" stroke="black"/>
<line x1="200.5" y1="13" x2="200.5" y2="23" stroke="black"/>
<line x1="100.5" y1="13" x2="100.5" y2="23" stroke="black"/>
<path d="M478.631 17.1193C478.131 17.1193 477.68 17.0199 477.28 16.821C476.879 16.6222 476.558 16.3494 476.317 16.0028C476.075 15.6562 475.943 15.2614 475.92 14.8182H476.943C476.983 15.2131 477.162 15.5398 477.48 15.7983C477.801 16.054 478.185 16.1818 478.631 16.1818C478.989 16.1818 479.307 16.098 479.585 15.9304C479.866 15.7628 480.087 15.5327 480.246 15.2401C480.408 14.9446 480.489 14.6108 480.489 14.2386C480.489 13.858 480.405 13.5185 480.237 13.2202C480.072 12.919 479.845 12.6818 479.555 12.5085C479.266 12.3352 478.935 12.2472 478.562 12.2443C478.295 12.2415 478.021 12.2827 477.74 12.3679C477.459 12.4503 477.227 12.5568 477.045 12.6875L476.057 12.5682L476.585 8.27273H481.119V9.21023H477.472L477.165 11.7841H477.216C477.395 11.642 477.619 11.5241 477.889 11.4304C478.159 11.3366 478.44 11.2898 478.733 11.2898C479.267 11.2898 479.743 11.4176 480.161 11.6733C480.581 11.9261 480.911 12.2727 481.149 12.7131C481.391 13.1534 481.511 13.6562 481.511 14.2216C481.511 14.7784 481.386 15.2756 481.136 15.7131C480.889 16.1477 480.548 16.4915 480.114 16.7443C479.679 16.9943 479.185 17.1193 478.631 17.1193ZM486.051 17.1193C485.409 17.1193 484.862 16.9446 484.41 16.5952C483.958 16.2429 483.613 15.733 483.375 15.0653C483.136 14.3949 483.017 13.5852 483.017 12.6364C483.017 11.6932 483.136 10.8878 483.375 10.2202C483.616 9.54972 483.963 9.03835 484.414 8.68608C484.869 8.33097 485.414 8.15341 486.051 8.15341C486.687 8.15341 487.231 8.33097 487.683 8.68608C488.137 9.03835 488.484 9.54972 488.723 10.2202C488.964 10.8878 489.085 11.6932 489.085 12.6364C489.085 13.5852 488.966 14.3949 488.727 15.0653C488.488 15.733 488.143 16.2429 487.691 16.5952C487.24 16.9446 486.693 17.1193 486.051 17.1193ZM486.051 16.1818C486.687 16.1818 487.181 15.875 487.534 15.2614C487.886 14.6477 488.062 13.7727 488.062 12.6364C488.062 11.8807 487.981 11.2372 487.819 10.706C487.66 10.1747 487.43 9.76989 487.129 9.49148C486.831 9.21307 486.471 9.07386 486.051 9.07386C485.42 9.07386 484.927 9.38494 484.572 10.0071C484.217 10.6264 484.039 11.5028 484.039 12.6364C484.039 13.392 484.119 14.0341 484.278 14.5625C484.437 15.0909 484.666 15.4929 484.964 15.7685C485.265 16.044 485.627 16.1818 486.051 16.1818ZM493.551 17.1193C492.909 17.1193 492.362 16.9446 491.91 16.5952C491.458 16.2429 491.113 15.733 490.875 15.0653C490.636 14.3949 490.517 13.5852 490.517 12.6364C490.517 11.6932 490.636 10.8878 490.875 10.2202C491.116 9.54972 491.463 9.03835 491.914 8.68608C492.369 8.33097 492.914 8.15341 493.551 8.15341C494.187 8.15341 494.731 8.33097 495.183 8.68608C495.637 9.03835 495.984 9.54972 496.223 10.2202C496.464 10.8878 496.585 11.6932 496.585 12.6364C496.585 13.5852 496.466 14.3949 496.227 15.0653C495.988 15.733 495.643 16.2429 495.191 16.5952C494.74 16.9446 494.193 17.1193 493.551 17.1193ZM493.551 16.1818C494.187 16.1818 494.681 15.875 495.034 15.2614C495.386 14.6477 495.562 13.7727 495.562 12.6364C495.562 11.8807 495.481 11.2372 495.319 10.706C495.16 10.1747 494.93 9.76989 494.629 9.49148C494.331 9.21307 493.971 9.07386 493.551 9.07386C492.92 9.07386 492.427 9.38494 492.072 10.0071C491.717 10.6264 491.539 11.5028 491.539 12.6364C491.539 13.392 491.619 14.0341 491.778 14.5625C491.937 15.0909 492.166 15.4929 492.464 15.7685C492.765 16.044 493.127 16.1818 493.551 16.1818Z" fill="#808080"/>
<path d="M374.699 16.2102V15.3409L378.534 9.27273H379.165V10.6193H378.739L375.841 15.2045V15.2727H381.006V16.2102H374.699ZM378.807 18V15.946V15.5412V9.27273H379.812V18H378.807ZM385.449 18.1193C384.807 18.1193 384.26 17.9446 383.809 17.5952C383.357 17.2429 383.012 16.733 382.773 16.0653C382.534 15.3949 382.415 14.5852 382.415 13.6364C382.415 12.6932 382.534 11.8878 382.773 11.2202C383.015 10.5497 383.361 10.0384 383.813 9.68608C384.267 9.33097 384.813 9.15341 385.449 9.15341C386.086 9.15341 386.63 9.33097 387.081 9.68608C387.536 10.0384 387.882 10.5497 388.121 11.2202C388.363 11.8878 388.483 12.6932 388.483 13.6364C388.483 14.5852 388.364 15.3949 388.125 16.0653C387.887 16.733 387.542 17.2429 387.09 17.5952C386.638 17.9446 386.091 18.1193 385.449 18.1193ZM385.449 17.1818C386.086 17.1818 386.58 16.875 386.932 16.2614C387.284 15.6477 387.461 14.7727 387.461 13.6364C387.461 12.8807 387.38 12.2372 387.218 11.706C387.059 11.1747 386.828 10.7699 386.527 10.4915C386.229 10.2131 385.87 10.0739 385.449 10.0739C384.819 10.0739 384.326 10.3849 383.971 11.0071C383.615 11.6264 383.438 12.5028 383.438 13.6364C383.438 14.392 383.517 15.0341 383.676 15.5625C383.836 16.0909 384.064 16.4929 384.363 16.7685C384.664 17.044 385.026 17.1818 385.449 17.1818ZM392.949 18.1193C392.307 18.1193 391.76 17.9446 391.309 17.5952C390.857 17.2429 390.512 16.733 390.273 16.0653C390.034 15.3949 389.915 14.5852 389.915 13.6364C389.915 12.6932 390.034 11.8878 390.273 11.2202C390.515 10.5497 390.861 10.0384 391.313 9.68608C391.767 9.33097 392.313 9.15341 392.949 9.15341C393.586 9.15341 394.13 9.33097 394.581 9.68608C395.036 10.0384 395.382 10.5497 395.621 11.2202C395.863 11.8878 395.983 12.6932 395.983 13.6364C395.983 14.5852 395.864 15.3949 395.625 16.0653C395.387 16.733 395.042 17.2429 394.59 17.5952C394.138 17.9446 393.591 18.1193 392.949 18.1193ZM392.949 17.1818C393.586 17.1818 394.08 16.875 394.432 16.2614C394.784 15.6477 394.961 14.7727 394.961 13.6364C394.961 12.8807 394.88 12.2372 394.718 11.706C394.559 11.1747 394.328 10.7699 394.027 10.4915C393.729 10.2131 393.37 10.0739 392.949 10.0739C392.319 10.0739 391.826 10.3849 391.471 11.0071C391.115 11.6264 390.938 12.5028 390.938 13.6364C390.938 14.392 391.017 15.0341 391.176 15.5625C391.336 16.0909 391.564 16.4929 391.863 16.7685C392.164 17.044 392.526 17.1818 392.949 17.1818Z" fill="#808080"/>
<path d="M277.852 18.1193C277.29 18.1193 276.788 18.0227 276.348 17.8295C275.911 17.6364 275.563 17.3679 275.304 17.0241C275.048 16.6776 274.909 16.2756 274.886 15.8182H275.96C275.983 16.0994 276.08 16.3423 276.25 16.5469C276.42 16.7486 276.643 16.9048 276.919 17.0156C277.195 17.1264 277.5 17.1818 277.835 17.1818C278.21 17.1818 278.543 17.1165 278.832 16.9858C279.122 16.8551 279.349 16.6733 279.514 16.4403C279.679 16.2074 279.761 15.9375 279.761 15.6307C279.761 15.3097 279.682 15.027 279.523 14.7827C279.364 14.5355 279.131 14.3423 278.824 14.2031C278.517 14.0639 278.142 13.9943 277.699 13.9943H277V13.0568H277.699C278.045 13.0568 278.349 12.9943 278.611 12.8693C278.875 12.7443 279.081 12.5682 279.229 12.3409C279.379 12.1136 279.455 11.8466 279.455 11.5398C279.455 11.2443 279.389 10.9872 279.259 10.7685C279.128 10.5497 278.943 10.3793 278.705 10.2571C278.469 10.1349 278.19 10.0739 277.869 10.0739C277.568 10.0739 277.284 10.1293 277.017 10.2401C276.753 10.348 276.537 10.5057 276.369 10.7131C276.202 10.9176 276.111 11.1648 276.097 11.4545H275.074C275.091 10.9972 275.229 10.5966 275.487 10.2528C275.746 9.90625 276.084 9.63636 276.501 9.44318C276.922 9.25 277.384 9.15341 277.886 9.15341C278.426 9.15341 278.889 9.26278 279.276 9.48153C279.662 9.69744 279.959 9.98295 280.166 10.3381C280.374 10.6932 280.477 11.0767 280.477 11.4886C280.477 11.9801 280.348 12.3991 280.089 12.7457C279.834 13.0923 279.486 13.3324 279.045 13.4659V13.5341C279.597 13.625 280.027 13.8594 280.337 14.2372C280.646 14.6122 280.801 15.0767 280.801 15.6307C280.801 16.1051 280.672 16.5312 280.413 16.9091C280.158 17.2841 279.808 17.5795 279.365 17.7955C278.922 18.0114 278.418 18.1193 277.852 18.1193ZM285.391 18.1193C284.749 18.1193 284.202 17.9446 283.75 17.5952C283.298 17.2429 282.953 16.733 282.714 16.0653C282.476 15.3949 282.357 14.5852 282.357 13.6364C282.357 12.6932 282.476 11.8878 282.714 11.2202C282.956 10.5497 283.303 10.0384 283.754 9.68608C284.209 9.33097 284.754 9.15341 285.391 9.15341C286.027 9.15341 286.571 9.33097 287.023 9.68608C287.477 10.0384 287.824 10.5497 288.062 11.2202C288.304 11.8878 288.425 12.6932 288.425 13.6364C288.425 14.5852 288.305 15.3949 288.067 16.0653C287.828 16.733 287.483 17.2429 287.031 17.5952C286.58 17.9446 286.033 18.1193 285.391 18.1193ZM285.391 17.1818C286.027 17.1818 286.521 16.875 286.874 16.2614C287.226 15.6477 287.402 14.7727 287.402 13.6364C287.402 12.8807 287.321 12.2372 287.159 11.706C287 11.1747 286.77 10.7699 286.469 10.4915C286.17 10.2131 285.811 10.0739 285.391 10.0739C284.76 10.0739 284.267 10.3849 283.912 11.0071C283.557 11.6264 283.379 12.5028 283.379 13.6364C283.379 14.392 283.459 15.0341 283.618 15.5625C283.777 16.0909 284.006 16.4929 284.304 16.7685C284.605 17.044 284.967 17.1818 285.391 17.1818ZM292.891 18.1193C292.249 18.1193 291.702 17.9446 291.25 17.5952C290.798 17.2429 290.453 16.733 290.214 16.0653C289.976 15.3949 289.857 14.5852 289.857 13.6364C289.857 12.6932 289.976 11.8878 290.214 11.2202C290.456 10.5497 290.803 10.0384 291.254 9.68608C291.709 9.33097 292.254 9.15341 292.891 9.15341C293.527 9.15341 294.071 9.33097 294.523 9.68608C294.977 10.0384 295.324 10.5497 295.562 11.2202C295.804 11.8878 295.925 12.6932 295.925 13.6364C295.925 14.5852 295.805 15.3949 295.567 16.0653C295.328 16.733 294.983 17.2429 294.531 17.5952C294.08 17.9446 293.533 18.1193 292.891 18.1193ZM292.891 17.1818C293.527 17.1818 294.021 16.875 294.374 16.2614C294.726 15.6477 294.902 14.7727 294.902 13.6364C294.902 12.8807 294.821 12.2372 294.659 11.706C294.5 11.1747 294.27 10.7699 293.969 10.4915C293.67 10.2131 293.311 10.0739 292.891 10.0739C292.26 10.0739 291.767 10.3849 291.412 11.0071C291.057 11.6264 290.879 12.5028 290.879 13.6364C290.879 14.392 290.959 15.0341 291.118 15.5625C291.277 16.0909 291.506 16.4929 291.804 16.7685C292.105 17.044 292.467 17.1818 292.891 17.1818Z" fill="#808080"/>
<path d="M174.903 18V17.2329L177.784 14.0795C178.122 13.7102 178.401 13.3892 178.619 13.1164C178.838 12.8409 179 12.5824 179.105 12.3409C179.213 12.0966 179.267 11.8409 179.267 11.5738C179.267 11.267 179.193 11.0014 179.045 10.777C178.901 10.5525 178.702 10.3792 178.449 10.2571C178.196 10.1349 177.912 10.0738 177.597 10.0738C177.261 10.0738 176.969 10.1434 176.719 10.2826C176.472 10.419 176.28 10.6108 176.143 10.8579C176.01 11.1051 175.943 11.3949 175.943 11.7272H174.938C174.938 11.2159 175.055 10.767 175.291 10.3807C175.527 9.99429 175.848 9.69315 176.254 9.47724C176.663 9.26133 177.122 9.15338 177.631 9.15338C178.142 9.15338 178.595 9.26133 178.99 9.47724C179.385 9.69315 179.695 9.98434 179.919 10.3508C180.143 10.7173 180.256 11.125 180.256 11.5738C180.256 11.8949 180.197 12.2088 180.081 12.5156C179.967 12.8196 179.768 13.1591 179.484 13.5341C179.203 13.9062 178.812 14.3608 178.312 14.8977L176.352 16.9943V17.0625H180.409V18H174.903ZM185.016 18.1193C184.374 18.1193 183.827 17.9446 183.375 17.5951C182.923 17.2429 182.578 16.7329 182.339 16.0653C182.101 15.3949 181.982 14.5852 181.982 13.6363C181.982 12.6932 182.101 11.8878 182.339 11.2201C182.581 10.5497 182.928 10.0383 183.379 9.68605C183.834 9.33094 184.379 9.15338 185.016 9.15338C185.652 9.15338 186.196 9.33094 186.648 9.68605C187.102 10.0383 187.449 10.5497 187.688 11.2201C187.929 11.8878 188.05 12.6932 188.05 13.6363C188.05 14.5852 187.93 15.3949 187.692 16.0653C187.453 16.7329 187.108 17.2429 186.656 17.5951C186.205 17.9446 185.658 18.1193 185.016 18.1193ZM185.016 17.1818C185.652 17.1818 186.146 16.875 186.499 16.2613C186.851 15.6477 187.027 14.7727 187.027 13.6363C187.027 12.8807 186.946 12.2372 186.784 11.7059C186.625 11.1747 186.395 10.7699 186.094 10.4914C185.795 10.213 185.436 10.0738 185.016 10.0738C184.385 10.0738 183.892 10.3849 183.537 11.0071C183.182 11.6264 183.004 12.5028 183.004 13.6363C183.004 14.392 183.084 15.0341 183.243 15.5625C183.402 16.0909 183.631 16.4929 183.929 16.7684C184.23 17.044 184.592 17.1818 185.016 17.1818ZM192.516 18.1193C191.874 18.1193 191.327 17.9446 190.875 17.5951C190.423 17.2429 190.078 16.7329 189.839 16.0653C189.601 15.3949 189.482 14.5852 189.482 13.6363C189.482 12.6932 189.601 11.8878 189.839 11.2201C190.081 10.5497 190.428 10.0383 190.879 9.68605C191.334 9.33094 191.879 9.15338 192.516 9.15338C193.152 9.15338 193.696 9.33094 194.148 9.68605C194.602 10.0383 194.949 10.5497 195.188 11.2201C195.429 11.8878 195.55 12.6932 195.55 13.6363C195.55 14.5852 195.43 15.3949 195.192 16.0653C194.953 16.7329 194.608 17.2429 194.156 17.5951C193.705 17.9446 193.158 18.1193 192.516 18.1193ZM192.516 17.1818C193.152 17.1818 193.646 16.875 193.999 16.2613C194.351 15.6477 194.527 14.7727 194.527 13.6363C194.527 12.8807 194.446 12.2372 194.284 11.7059C194.125 11.1747 193.895 10.7699 193.594 10.4914C193.295 10.213 192.936 10.0738 192.516 10.0738C191.885 10.0738 191.392 10.3849 191.037 11.0071C190.682 11.6264 190.504 12.5028 190.504 13.6363C190.504 14.392 190.584 15.0341 190.743 15.5625C190.902 16.0909 191.131 16.4929 191.429 16.7684C191.73 17.044 192.092 17.1818 192.516 17.1818Z" fill="#808080"/>
<path d="M77.9716 9.2727V18H76.9148V10.3807H76.8636L74.733 11.7954V10.7216L76.9148 9.2727H77.9716ZM83.3281 18.1193C82.6861 18.1193 82.1392 17.9446 81.6875 17.5951C81.2358 17.2429 80.8906 16.7329 80.652 16.0653C80.4134 15.3949 80.294 14.5852 80.294 13.6363C80.294 12.6932 80.4134 11.8878 80.652 11.2201C80.8935 10.5497 81.2401 10.0383 81.6918 9.68605C82.1463 9.33094 82.6918 9.15338 83.3281 9.15338C83.9645 9.15338 84.5085 9.33094 84.9602 9.68605C85.4148 10.0383 85.7614 10.5497 86 11.2201C86.2415 11.8878 86.3622 12.6932 86.3622 13.6363C86.3622 14.5852 86.2429 15.3949 86.0043 16.0653C85.7656 16.7329 85.4205 17.2429 84.9688 17.5951C84.517 17.9446 83.9702 18.1193 83.3281 18.1193ZM83.3281 17.1818C83.9645 17.1818 84.4588 16.875 84.8111 16.2613C85.1634 15.6477 85.3395 14.7727 85.3395 13.6363C85.3395 12.8807 85.2585 12.2372 85.0966 11.7059C84.9375 11.1747 84.7074 10.7699 84.4062 10.4914C84.108 10.213 83.7486 10.0738 83.3281 10.0738C82.6974 10.0738 82.2045 10.3849 81.8494 11.0071C81.4943 11.6264 81.3168 12.5028 81.3168 13.6363C81.3168 14.392 81.3963 15.0341 81.5554 15.5625C81.7145 16.0909 81.9432 16.4929 82.2415 16.7684C82.5426 17.044 82.9048 17.1818 83.3281 17.1818ZM90.8281 18.1193C90.1861 18.1193 89.6392 17.9446 89.1875 17.5951C88.7358 17.2429 88.3906 16.7329 88.152 16.0653C87.9134 15.3949 87.794 14.5852 87.794 13.6363C87.794 12.6932 87.9134 11.8878 88.152 11.2201C88.3935 10.5497 88.7401 10.0383 89.1918 9.68605C89.6463 9.33094 90.1918 9.15338 90.8281 9.15338C91.4645 9.15338 92.0085 9.33094 92.4602 9.68605C92.9148 10.0383 93.2614 10.5497 93.5 11.2201C93.7415 11.8878 93.8622 12.6932 93.8622 13.6363C93.8622 14.5852 93.7429 15.3949 93.5043 16.0653C93.2656 16.7329 92.9205 17.2429 92.4688 17.5951C92.017 17.9446 91.4702 18.1193 90.8281 18.1193ZM90.8281 17.1818C91.4645 17.1818 91.9588 16.875 92.3111 16.2613C92.6634 15.6477 92.8395 14.7727 92.8395 13.6363C92.8395 12.8807 92.7585 12.2372 92.5966 11.7059C92.4375 11.1747 92.2074 10.7699 91.9062 10.4914C91.608 10.213 91.2486 10.0738 90.8281 10.0738C90.1974 10.0738 89.7045 10.3849 89.3494 11.0071C88.9943 11.6264 88.8168 12.5028 88.8168 13.6363C88.8168 14.392 88.8963 15.0341 89.0554 15.5625C89.2145 16.0909 89.4432 16.4929 89.7415 16.7684C90.0426 17.044 90.4048 17.1818 90.8281 17.1818Z" fill="#808080"/>
<line x1="500" y1="22.5" x2="-4.37114e-08" y2="22.5" stroke="#808080"/>
</g>
<defs>
<clipPath id="clip0_1_19">
<rect width="23" height="500" fill="white" transform="translate(500 3.05176e-05) rotate(90)"/>
</clipPath>
</defs>
</svg>
